REM DIRINDEX 1\2,1\3,1\4
REM DIRNAME folder01,folder02,folder03,folder04
TITLE ""
FILE "Track09.mp3" MP3
  TRACK 01 AUDIO
    TITLE "0:"
    INDEX 01 00:00:00
  TRACK 02 AUDIO
    TITLE "4:cjc153_0399"
    INDEX 01 00:00:05
  TRACK 03 AUDIO
    TITLE "0:"
    INDEX 01 00:01:58
  TRACK 04 AUDIO
    TITLE "2:cjc153_0400"
    INDEX 01 00:02:36
  TRACK 05 AUDIO
    TITLE "0:"
    INDEX 01 00:03:41
  TRACK 06 AUDIO
    TITLE "3:cjc153_0401"
    INDEX 01 00:03:68
  TRACK 07 AUDIO
    TITLE "0:"
    INDEX 01 00:05:01
  TRACK 08 AUDIO
    TITLE "2:cjc153_0402"
    INDEX 01 00:05:40
  TRACK 09 AUDIO
    TITLE "0:"
    INDEX 01 00:06:33
  TRACK 10 AUDIO
    TITLE "3:cjc153_0403"
    INDEX 01 00:06:61
  TRACK 11 AUDIO
    TITLE "0:"
    INDEX 01 00:07:58
  TRACK 12 AUDIO
    TITLE "2:cjc153_0404"
    INDEX 01 00:08:21
  TRACK 13 AUDIO
    TITLE "0:"
    INDEX 01 00:09:20
  TRACK 14 AUDIO
    TITLE "3:cjc153_0405"
    INDEX 01 00:09:45
  TRACK 15 AUDIO
    TITLE "0:"
    INDEX 01 00:10:47
  TRACK 16 AUDIO
    TITLE "2:cjc153_0406"
    INDEX 01 00:11:13
  TRACK 17 AUDIO
    TITLE "0:"
    INDEX 01 00:12:07
  TRACK 18 AUDIO
    TITLE "3:cjc153_0407"
    INDEX 01 00:12:40
  TRACK 19 AUDIO
    TITLE "0:"
    INDEX 01 00:13:35
  TRACK 20 AUDIO
    TITLE "2:cjc153_0408"
    INDEX 01 00:13:73
  TRACK 21 AUDIO
    TITLE "0:"
    INDEX 01 00:14:72
  TRACK 22 AUDIO
    TITLE "3:cjc153_0409"
    INDEX 01 00:15:23
  TRACK 23 AUDIO
    TITLE "0:"
    INDEX 01 00:16:22
  TRACK 24 AUDIO
    TITLE "2:cjc153_0410"
    INDEX 01 00:16:59
  TRACK 25 AUDIO
    TITLE "0:"
    INDEX 01 00:17:65
  TRACK 26 AUDIO
    TITLE "3:cjc153_0411"
    INDEX 01 00:18:11
  TRACK 27 AUDIO
    TITLE "0:"
    INDEX 01 00:19:20
  TRACK 28 AUDIO
    TITLE "2:cjc153_0412"
    INDEX 01 00:19:56
  TRACK 29 AUDIO
    TITLE "0:"
    INDEX 01 00:20:59
  TRACK 30 AUDIO
    TITLE "3:cjc153_0413"
    INDEX 01 00:21:08
  TRACK 31 AUDIO
    TITLE "0:"
    INDEX 01 00:22:17
  TRACK 32 AUDIO
    TITLE "2:cjc153_0414"
    INDEX 01 00:22:56
  TRACK 33 AUDIO
    TITLE "0:"
    INDEX 01 00:23:53
  TRACK 34 AUDIO
    TITLE "3:cjc153_0415"
    INDEX 01 00:24:00
  TRACK 35 AUDIO
    TITLE "0:"
    INDEX 01 00:25:01
  TRACK 36 AUDIO
    TITLE "2:cjc153_0416"
    INDEX 01 00:25:39
  TRACK 37 AUDIO
    TITLE "0:"
    INDEX 01 00:26:44
  TRACK 38 AUDIO
    TITLE "3:cjc153_0417"
    INDEX 01 00:26:71
  TRACK 39 AUDIO
    TITLE "0:"
    INDEX 01 00:28:08
  TRACK 40 AUDIO
    TITLE "2:cjc153_0418"
    INDEX 01 00:28:45
  TRACK 41 AUDIO
    TITLE "0:"
    INDEX 01 00:29:46
  TRACK 42 AUDIO
    TITLE "3:cjc153_0419"
    INDEX 01 00:29:70
  TRACK 43 AUDIO
    TITLE "0:"
    INDEX 01 00:30:73
  TRACK 44 AUDIO
    TITLE "2:cjc153_0420"
    INDEX 01 00:31:37
  TRACK 45 AUDIO
    TITLE "0:"
    INDEX 01 00:32:41
  TRACK 46 AUDIO
    TITLE "3:cjc153_0421"
    INDEX 01 00:32:66
  TRACK 47 AUDIO
    TITLE "0:"
    INDEX 01 00:33:68
  TRACK 48 AUDIO
    TITLE "2:cjc153_0422"
    INDEX 01 00:34:30
  TRACK 49 AUDIO
    TITLE "0:"
    INDEX 01 00:35:47
  TRACK 50 AUDIO
    TITLE "3:cjc153_0423"
    INDEX 01 00:36:01
  TRACK 51 AUDIO
    TITLE "0:"
    INDEX 01 00:37:22
  TRACK 52 AUDIO
    TITLE "2:cjc153_0424"
    INDEX 01 00:37:71
  TRACK 53 AUDIO
    TITLE "0:"
    INDEX 01 00:38:67
  TRACK 54 AUDIO
    TITLE "3:cjc153_0425"
    INDEX 01 00:39:21
  TRACK 55 AUDIO
    TITLE "0:"
    INDEX 01 00:40:19
  TRACK 56 AUDIO
    TITLE "2:cjc153_0426"
    INDEX 01 00:40:70
  TRACK 57 AUDIO
    TITLE "0:"
    INDEX 01 00:41:51
  TRACK 58 AUDIO
    TITLE "3:cjc153_0427"
    INDEX 01 00:42:27
  TRACK 59 AUDIO
    TITLE "0:"
    INDEX 01 00:43:11
  TRACK 60 AUDIO
    TITLE "2:cjc153_0428"
    INDEX 01 00:44:01
  TRACK 61 AUDIO
    TITLE "0:"
    INDEX 01 00:44:56
  TRACK 62 AUDIO
    TITLE "3:cjc153_0429"
    INDEX 01 00:45:20
  TRACK 63 AUDIO
    TITLE "0:"
    INDEX 01 00:46:15
  TRACK 64 AUDIO
    TITLE "2:cjc153_0430"
    INDEX 01 00:46:56
  TRACK 65 AUDIO
    TITLE "0:"
    INDEX 01 00:47:56
  TRACK 66 AUDIO
    TITLE "3:cjc153_0431"
    INDEX 01 00:48:08
  TRACK 67 AUDIO
    TITLE "0:"
    INDEX 01 00:49:02
  TRACK 68 AUDIO
    TITLE "2:cjc153_0432"
    INDEX 01 00:49:49
  TRACK 69 AUDIO
    TITLE "0:"
    INDEX 01 00:50:56
  TRACK 70 AUDIO
    TITLE "3:cjc153_0433"
    INDEX 01 00:51:07
  TRACK 71 AUDIO
    TITLE "0:"
    INDEX 01 00:52:20
  TRACK 72 AUDIO
    TITLE "2:cjc153_0434"
    INDEX 01 00:52:65
  TRACK 73 AUDIO
    TITLE "0:"
    INDEX 01 00:53:60
  TRACK 74 AUDIO
    TITLE "3:cjc153_0435"
    INDEX 01 00:54:23
  TRACK 75 AUDIO
    TITLE "0:"
    INDEX 01 00:55:20
  TRACK 76 AUDIO
    TITLE "2:cjc153_0436"
    INDEX 01 00:55:63
  TRACK 77 AUDIO
    TITLE "0:"
    INDEX 01 00:56:65
  TRACK 78 AUDIO
    TITLE "3:cjc153_0437"
    INDEX 01 00:57:17
  TRACK 79 AUDIO
    TITLE "0:"
    INDEX 01 00:58:24
  TRACK 80 AUDIO
    TITLE "2:cjc153_0438"
    INDEX 01 00:58:73
  TRACK 81 AUDIO
    TITLE "0:"
    INDEX 01 00:59:67
  TRACK 82 AUDIO
    TITLE "3:cjc153_0439"
    INDEX 01 01:00:21
  TRACK 83 AUDIO
    TITLE "0:"
    INDEX 01 01:01:17
  TRACK 84 AUDIO
    TITLE "2:cjc153_0440"
    INDEX 01 01:01:58
  TRACK 85 AUDIO
    TITLE "0:"
    INDEX 01 01:02:71
  TRACK 86 AUDIO
    TITLE "3:cjc153_0441"
    INDEX 01 01:03:20
  TRACK 87 AUDIO
    TITLE "0:"
    INDEX 01 01:04:41
  TRACK 88 AUDIO
    TITLE "2:cjc153_0442"
    INDEX 01 01:05:05
  TRACK 89 AUDIO
    TITLE "0:"
    INDEX 01 01:06:10
  TRACK 90 AUDIO
    TITLE "3:cjc153_0443"
    INDEX 01 01:06:36
  TRACK 91 AUDIO
    TITLE "0:"
    INDEX 01 01:07:41
  TRACK 92 AUDIO
    TITLE "2:cjc153_0444"
    INDEX 01 01:08:09
  TRACK 93 AUDIO
    TITLE "0:"
    INDEX 01 01:09:34
  TRACK 94 AUDIO
    TITLE "3:cjc153_0445"
    INDEX 01 01:09:63
  TRACK 95 AUDIO
    TITLE "0:"
    INDEX 01 01:11:17
  TRACK 96 AUDIO
    TITLE "2:cjc153_0446"
    INDEX 01 01:11:52
  TRACK 97 AUDIO
    TITLE "0:"
    INDEX 01 01:13:06
  TRACK 98 AUDIO
    TITLE "3:cjc153_0447"
    INDEX 01 01:13:32
  TRACK 99 AUDIO
    TITLE "0:"
    INDEX 01 01:14:68
  TRACK 100 AUDIO
    TITLE "2:cjc153_0448"
    INDEX 01 01:15:31
  TRACK 101 AUDIO
    TITLE "0:"
    INDEX 01 01:16:50
  TRACK 102 AUDIO
    TITLE "3:cjc153_0449"
    INDEX 01 01:17:00
  TRACK 103 AUDIO
    TITLE "0:"
    INDEX 01 01:18:31
  TRACK 104 AUDIO
    TITLE "2:cjc153_0450"
    INDEX 01 01:18:66
  TRACK 105 AUDIO
    TITLE "0:"
    INDEX 01 01:20:22
  TRACK 106 AUDIO
    TITLE "3:cjc153_0451"
    INDEX 01 01:20:48
  TRACK 107 AUDIO
    TITLE "0:"
    INDEX 01 01:22:07
  TRACK 108 AUDIO
    TITLE "2:cjc153_0452"
    INDEX 01 01:22:44
  TRACK 109 AUDIO
    TITLE "0:"
    INDEX 01 01:24:04
  TRACK 110 AUDIO
    TITLE "3:cjc153_0453"
    INDEX 01 01:24:30
  TRACK 111 AUDIO
    TITLE "0:"
    INDEX 01 01:25:62
  TRACK 112 AUDIO
    TITLE "2:cjc153_0454"
    INDEX 01 01:26:25
  TRACK 113 AUDIO
    TITLE "0:"
    INDEX 01 01:27:51
  TRACK 114 AUDIO
    TITLE "3:cjc153_0455"
    INDEX 01 01:28:04
  TRACK 115 AUDIO
    TITLE "0:"
    INDEX 01 01:29:31
  TRACK 116 AUDIO
    TITLE "2:cjc153_0456"
    INDEX 01 01:29:70
  TRACK 117 AUDIO
    TITLE "0:"
    INDEX 01 01:31:28
  TRACK 118 AUDIO
    TITLE "3:cjc153_0457"
    INDEX 01 01:31:55
  TRACK 119 AUDIO
    TITLE "0:"
    INDEX 01 01:33:17
  TRACK 120 AUDIO
    TITLE "2:cjc153_0458"
    INDEX 01 01:33:56
  TRACK 121 AUDIO
    TITLE "0:"
    INDEX 01 01:34:63
  TRACK 122 AUDIO
    TITLE "3:cjc153_0459"
    INDEX 01 01:35:14
  TRACK 123 AUDIO
    TITLE "0:"
    INDEX 01 01:36:23
  TRACK 124 AUDIO
    TITLE "2:cjc153_0460"
    INDEX 01 01:36:62
  TRACK 125 AUDIO
    TITLE "0:"
    INDEX 01 01:37:73
  TRACK 126 AUDIO
    TITLE "3:cjc153_0461"
    INDEX 01 01:38:34
  TRACK 127 AUDIO
    TITLE "0:"
    INDEX 01 01:39:47
  TRACK 128 AUDIO
    TITLE "2:cjc153_0462"
    INDEX 01 01:40:23
  TRACK 129 AUDIO
    TITLE "0:"
    INDEX 01 01:41:14
  TRACK 130 AUDIO
    TITLE "3:cjc153_0463"
    INDEX 01 01:41:54
  TRACK 131 AUDIO
    TITLE "0:"
    INDEX 01 01:42:47
  TRACK 132 AUDIO
    TITLE "2:cjc153_0464"
    INDEX 01 01:43:25
  TRACK 133 AUDIO
    TITLE "0:"
    INDEX 01 01:44:42
  TRACK 134 AUDIO
    TITLE "3:cjc153_0465"
    INDEX 01 01:44:72
  TRACK 135 AUDIO
    TITLE "0:"
    INDEX 01 01:46:21
  TRACK 136 AUDIO
    TITLE "2:cjc153_0466"
    INDEX 01 01:46:61
  TRACK 137 AUDIO
    TITLE "0:"
    INDEX 01 01:48:05
  TRACK 138 AUDIO
    TITLE "3:cjc153_0467"
    INDEX 01 01:48:40
  TRACK 139 AUDIO
    TITLE "0:"
    INDEX 01 01:49:59
  TRACK 140 AUDIO
    TITLE "2:cjc153_0468"
    INDEX 01 01:50:29
  TRACK 141 AUDIO
    TITLE "0:"
    INDEX 01 01:51:44
  TRACK 142 AUDIO
    TITLE "3:cjc153_0469"
    INDEX 01 01:52:00
  TRACK 143 AUDIO
    TITLE "0:"
    INDEX 01 01:53:14
  TRACK 144 AUDIO
    TITLE "2:cjc153_0470"
    INDEX 01 01:53:61
  TRACK 145 AUDIO
    TITLE "0:"
    INDEX 01 01:55:11
  TRACK 146 AUDIO
    TITLE "3:cjc153_0471"
    INDEX 01 01:55:36
  TRACK 147 AUDIO
    TITLE "0:"
    INDEX 01 01:56:59
  TRACK 148 AUDIO
    TITLE "2:cjc153_0472"
    INDEX 01 01:57:35
  TRACK 149 AUDIO
    TITLE "0:"
    INDEX 01 01:58:58
  TRACK 150 AUDIO
    TITLE "3:cjc153_0473"
    INDEX 01 01:59:14
  TRACK 151 AUDIO
    TITLE "0:"
    INDEX 01 02:00:35
  TRACK 152 AUDIO
    TITLE "2:cjc153_0474"
    INDEX 01 02:01:03
  TRACK 153 AUDIO
    TITLE "0:"
    INDEX 01 02:02:22
  TRACK 154 AUDIO
    TITLE "3:cjc153_0475"
    INDEX 01 02:02:54
  TRACK 155 AUDIO
    TITLE "0:"
    INDEX 01 02:03:71
  TRACK 156 AUDIO
    TITLE "2:cjc153_0476"
    INDEX 01 02:04:41
  TRACK 157 AUDIO
    TITLE "0:"
    INDEX 01 02:05:62
  TRACK 158 AUDIO
    TITLE "3:cjc153_0477"
    INDEX 01 02:06:20
  TRACK 159 AUDIO
    TITLE "0:"
    INDEX 01 02:07:37
  TRACK 160 AUDIO
    TITLE "2:cjc153_0478"
    INDEX 01 02:08:13
  TRACK 161 AUDIO
    TITLE "0:"
    INDEX 01 02:09:21
  TRACK 162 AUDIO
    TITLE "3:cjc153_0479"
    INDEX 01 02:09:64
  TRACK 163 AUDIO
    TITLE "0:"
    INDEX 01 02:11:02
  TRACK 164 AUDIO
    TITLE "2:cjc153_0480"
    INDEX 01 02:11:51
  TRACK 165 AUDIO
    TITLE "0:"
    INDEX 01 02:13:01
  TRACK 166 AUDIO
    TITLE "3:cjc153_0481"
    INDEX 01 02:13:28
  TRACK 167 AUDIO
    TITLE "0:"
    INDEX 01 02:14:53
  TRACK 168 AUDIO
    TITLE "2:cjc153_0482"
    INDEX 01 02:15:17
  TRACK 169 AUDIO
    TITLE "0:"
    INDEX 01 02:16:11
  TRACK 170 AUDIO
    TITLE "3:cjc153_0483"
    INDEX 01 02:16:40
  TRACK 171 AUDIO
    TITLE "0:"
    INDEX 01 02:17:40
  TRACK 172 AUDIO
    TITLE "2:cjc153_0484"
    INDEX 01 02:18:04
  TRACK 173 AUDIO
    TITLE "0:"
    INDEX 01 02:19:07
  TRACK 174 AUDIO
    TITLE "3:cjc153_0485"
    INDEX 01 02:19:31
  TRACK 175 AUDIO
    TITLE "0:"
    INDEX 01 02:20:32
  TRACK 176 AUDIO
    TITLE "2:cjc153_0486"
    INDEX 01 02:20:71
  TRACK 177 AUDIO
    TITLE "0:"
    INDEX 01 02:22:02
  TRACK 178 AUDIO
    TITLE "3:cjc153_0487"
    INDEX 01 02:22:27
  TRACK 179 AUDIO
    TITLE "0:"
    INDEX 01 02:23:38
  TRACK 180 AUDIO
    TITLE "2:cjc153_0488"
    INDEX 01 02:24:00
  TRACK 181 AUDIO
    TITLE "0:"
    INDEX 01 02:25:16
  TRACK 182 AUDIO
    TITLE "3:cjc153_0489"
    INDEX 01 02:25:41
  TRACK 183 AUDIO
    TITLE "0:"
    INDEX 01 02:26:64
  TRACK 184 AUDIO
    TITLE "2:cjc153_0490"
    INDEX 01 02:27:30
  TRACK 185 AUDIO
    TITLE "0:"
    INDEX 01 02:28:41
  TRACK 186 AUDIO
    TITLE "3:cjc153_0491"
    INDEX 01 02:28:67
  TRACK 187 AUDIO
    TITLE "0:"
    INDEX 01 02:30:05
  TRACK 188 AUDIO
    TITLE "2:cjc153_0492"
    INDEX 01 02:30:46
  TRACK 189 AUDIO
    TITLE "0:"
    INDEX 01 02:31:44
  TRACK 190 AUDIO
    TITLE "3:cjc153_0493"
    INDEX 01 02:31:71
  TRACK 191 AUDIO
    TITLE "0:"
    INDEX 01 02:33:01
  TRACK 192 AUDIO
    TITLE "2:cjc153_0494"
    INDEX 01 02:33:41
  TRACK 193 AUDIO
    TITLE "0:"
    INDEX 01 02:34:56
  TRACK 194 AUDIO
    TITLE "3:cjc153_0495"
    INDEX 01 02:35:02
  TRACK 195 AUDIO
    TITLE "0:"
    INDEX 01 02:36:21
  TRACK 196 AUDIO
    TITLE "2:cjc153_0496"
    INDEX 01 02:36:59
  TRACK 197 AUDIO
    TITLE "0:"
    INDEX 01 02:38:10
  TRACK 198 AUDIO
    TITLE "3:cjc153_0497"
    INDEX 01 02:38:36
  TRACK 199 AUDIO
    TITLE "0:"
    INDEX 01 02:39:71
  TRACK 200 AUDIO
    TITLE "2:cjc153_0498"
    INDEX 01 02:40:31
  TRACK 201 AUDIO
    TITLE "0:"
    INDEX 01 02:41:40
  TRACK 202 AUDIO
    TITLE "3:cjc153_0499"
    INDEX 01 02:41:73
  TRACK 203 AUDIO
    TITLE "0:"
    INDEX 01 02:43:02
  TRACK 204 AUDIO
    TITLE "2:cjc153_0500"
    INDEX 01 02:43:61
  TRACK 205 AUDIO
    TITLE "0:"
    INDEX 01 02:44:62
  TRACK 206 AUDIO
    TITLE "3:cjc153_0501"
    INDEX 01 02:45:36
  TRACK 207 AUDIO
    TITLE "0:"
    INDEX 01 02:46:35
  TRACK 208 AUDIO
    TITLE "2:cjc153_0502"
    INDEX 01 02:47:15
  TRACK 209 AUDIO
    TITLE "0:"
    INDEX 01 02:48:32
  TRACK 210 AUDIO
    TITLE "3:cjc153_0503"
    INDEX 01 02:48:56
  TRACK 211 AUDIO
    TITLE "0:"
    INDEX 01 02:49:61
  TRACK 212 AUDIO
    TITLE "2:cjc153_0504"
    INDEX 01 02:50:45
  TRACK 213 AUDIO
    TITLE "0:"
    INDEX 01 02:51:58
  TRACK 214 AUDIO
    TITLE "3:cjc153_0505"
    INDEX 01 02:52:22
  TRACK 215 AUDIO
    TITLE "0:"
    INDEX 01 02:53:47
  TRACK 216 AUDIO
    TITLE "2:cjc153_0506"
    INDEX 01 02:54:19
  TRACK 217 AUDIO
    TITLE "0:"
    INDEX 01 02:55:28
  TRACK 218 AUDIO
    TITLE "3:cjc153_0507"
    INDEX 01 02:55:68
  TRACK 219 AUDIO
    TITLE "0:"
    INDEX 01 02:56:73
  TRACK 220 AUDIO
    TITLE "2:cjc153_0508"
    INDEX 01 02:57:57
  TRACK 221 AUDIO
    TITLE "0:"
    INDEX 01 02:58:60
  TRACK 222 AUDIO
    TITLE "3:cjc153_0509"
    INDEX 01 02:59:26
  TRACK 223 AUDIO
    TITLE "0:"
    INDEX 01 03:00:22
  TRACK 224 AUDIO
    TITLE "2:cjc153_0510"
    INDEX 01 03:01:08
  TRACK 225 AUDIO
    TITLE "0:"
    INDEX 01 03:02:11
  TRACK 226 AUDIO
    TITLE "3:cjc153_0511"
    INDEX 01 03:02:60
  TRACK 227 AUDIO
    TITLE "0:"
    INDEX 01 03:03:67
  TRACK 228 AUDIO
    TITLE "2:cjc153_0512"
    INDEX 01 03:04:47
  TRACK 229 AUDIO
    TITLE "0:"
    INDEX 01 03:05:52
  TRACK 230 AUDIO
    TITLE "3:cjc153_0513"
    INDEX 01 03:06:01
  TRACK 231 AUDIO
    TITLE "0:"
    INDEX 01 03:07:08
  TRACK 232 AUDIO
    TITLE "2:cjc153_0514"
    INDEX 01 03:07:59
  TRACK 233 AUDIO
    TITLE "0:"
    INDEX 01 03:09:03
  TRACK 234 AUDIO
    TITLE "3:cjc153_0515"
    INDEX 01 03:09:36
  TRACK 235 AUDIO
    TITLE "0:"
    INDEX 01 03:10:57
  TRACK 236 AUDIO
    TITLE "2:cjc153_0516"
    INDEX 01 03:11:20
  TRACK 237 AUDIO
    TITLE "0:"
    INDEX 01 03:12:35
  TRACK 238 AUDIO
    TITLE "3:cjc153_0517"
    INDEX 01 03:12:60
  TRACK 239 AUDIO
    TITLE "0:"
    INDEX 01 03:14:04
  TRACK 240 AUDIO
    TITLE "2:cjc153_0518"
    INDEX 01 03:14:43
  TRACK 241 AUDIO
    TITLE "0:"
    INDEX 01 03:15:53
  TRACK 242 AUDIO
    TITLE "3:cjc153_0519"
    INDEX 01 03:16:03
  TRACK 243 AUDIO
    TITLE "0:"
    INDEX 01 03:17:16
  TRACK 244 AUDIO
    TITLE "2:cjc153_0520"
    INDEX 01 03:17:54
  TRACK 245 AUDIO
    TITLE "0:"
    INDEX 01 03:18:55
  TRACK 246 AUDIO
    TITLE "3:cjc153_0521"
    INDEX 01 03:19:07
  TRACK 247 AUDIO
    TITLE "0:"
    INDEX 01 03:20:13
  TRACK 248 AUDIO
    TITLE "2:cjc153_0522"
    INDEX 01 03:20:54
  TRACK 249 AUDIO
    TITLE "0:"
    INDEX 01 03:21:59
  TRACK 250 AUDIO
    TITLE "3:cjc153_0523"
    INDEX 01 03:22:08
  TRACK 251 AUDIO
    TITLE "0:"
    INDEX 01 03:23:17
  TRACK 252 AUDIO
    TITLE "2:cjc153_0524"
    INDEX 01 03:23:54
  TRACK 253 AUDIO
    TITLE "0:"
    INDEX 01 03:24:56
  TRACK 254 AUDIO
    TITLE "3:cjc153_0525"
    INDEX 01 03:25:14
  TRACK 255 AUDIO
    TITLE "0:"
    INDEX 01 03:26:23
  TRACK 256 AUDIO
    TITLE "2:cjc153_0526"
    INDEX 01 03:26:68
  TRACK 257 AUDIO
    TITLE "0:"
    INDEX 01 03:27:74
  TRACK 258 AUDIO
    TITLE "3:cjc153_0527"
    INDEX 01 03:28:24
  TRACK 259 AUDIO
    TITLE "0:"
    INDEX 01 03:29:31
  TRACK 260 AUDIO
    TITLE "2:cjc153_0528"
    INDEX 01 03:29:69
  TRACK 261 AUDIO
    TITLE "0:"
    INDEX 01 03:31:11
  TRACK 262 AUDIO
    TITLE "3:cjc153_0529"
    INDEX 01 03:31:38
  TRACK 263 AUDIO
    TITLE "0:"
    INDEX 01 03:32:59
